<?xml version="1.0" standalone="no"?>
<!DOCTYPE svg PUBLIC "-//W3C//DTD SVG 20010904//EN"
 "http://www.w3.org/TR/2001/REC-SVG-20010904/DTD/svg10.dtd">
<svg version="1.0" xmlns="http://www.w3.org/2000/svg"
 width="512.000000pt" height="512.000000pt" viewBox="0 0 512.000000 512.000000"
 preserveAspectRatio="xMidYMid meet">
<metadata>
Created by potrace 1.11, written by Peter Selinger 2001-2013
</metadata>
<g transform="translate(0.000000,512.000000) scale(0.100000,-0.100000)"
fill="#000000" stroke="none">
<path d="M2423 4850 c-12 -10 -49 -72 -84 -137 -34 -65 -74 -140 -89 -168 -15
-27 -45 -84 -67 -125 -22 -41 -70 -129 -105 -195 -95 -176 -169 -314 -291
-545 -27 -52 -53 -99 -57 -105 -4 -5 -33 -59 -65 -120 -32 -60 -73 -139 -93
-175 -19 -36 -53 -99 -75 -140 -22 -41 -68 -127 -102 -190 -34 -63 -84 -155
-110 -205 -26 -49 -60 -112 -75 -140 -16 -27 -79 -144 -140 -260 -130 -244
-167 -313 -263 -490 -38 -71 -88 -164 -110 -205 -22 -41 -60 -110 -84 -154
-24 -43 -43 -80 -43 -82 0 -1 -38 -72 -83 -156 -76 -139 -110 -202 -222 -413
-21 -38 -63 -117 -95 -175 -186 -340 -188 -347 -141 -396 l23 -24 2504 0
c2277 0 2507 1 2529 16 48 31 43 70 -23 196 -33 62 -83 158 -112 213 -29 55
-73 138 -98 185 -24 47 -67 128 -95 180 -27 52 -67 127 -87 165 -21 39 -62
117 -93 175 -83 159 -188 359 -287 545 -20 39 -67 126 -102 195 -117 223 -533
1014 -604 1147 -50 94 -56 102 -87 113 -38 13 -93 -10 -109 -44 -6 -15 -14
-26 -18 -26 -3 0 -21 30 -40 68 -19 37 -56 105 -81 152 -25 47 -122 227 -214
400 -93 173 -176 329 -185 345 -9 17 -48 89 -86 160 -38 72 -73 138 -79 148
-5 10 -35 65 -65 124 -68 131 -96 163 -142 163 -20 0 -43 -8 -55 -20z"/>
</g>
</svg>
